<svg width="24" height="24" viewBox="0 0 24 24" fill="none" xmlns="http://www.w3.org/2000/svg">
<path d="M15 5H17C18.1046 5 19 5.89543 19 7V19C19 20.1046 18.1046 21 17 21H7C5.89543 21 5 20.1046 5 19V7C5 5.89543 5.89543 5 7 5H9" stroke="#F9F9FB" stroke-width="1.5" stroke-linecap="round" stroke-linejoin="round"/>
<path fill-rule="evenodd" clip-rule="evenodd" d="M10 2H14C14.5523 2 15 2.44772 15 3V7H9V3C9 2.44772 9.44772 2 10 2Z" stroke="#F9F9FB" stroke-width="1.5" stroke-linecap="round" stroke-linejoin="round"/>
<path d="M19 12H5" stroke="#F9F9FB" stroke-width="1.5" stroke-linecap="round" stroke-linejoin="round"/>
<path d="M14.505 14.9951L14.5 15.0001L14.495 14.9951L14.5 14.9901L14.505 14.9951" stroke="#F9F9FB" stroke-width="1.5" stroke-linecap="round" stroke-linejoin="round"/>
<path d="M12.005 14.9951L12 15.0001L11.995 14.9951L12 14.9901L12.005 14.9951" stroke="#F9F9FB" stroke-width="1.5" stroke-linecap="round" stroke-linejoin="round"/>
<path d="M9.505 14.9951L9.5 15.0001L9.495 14.9951L9.5 14.9901L9.505 14.9951" stroke="#F9F9FB" stroke-width="1.5" stroke-linecap="round" stroke-linejoin="round"/>
<path d="M14.505 17.4951L14.5 17.5001L14.495 17.4951L14.5 17.4901L14.505 17.4951" stroke="#F9F9FB" stroke-width="1.5" stroke-linecap="round" stroke-linejoin="round"/>
<path d="M12.005 17.4951L12 17.5001L11.995 17.4951L12 17.4901L12.005 17.4951" stroke="#F9F9FB" stroke-width="1.5" stroke-linecap="round" stroke-linejoin="round"/>
<path d="M9.505 17.4951L9.5 17.5001L9.495 17.4951L9.5 17.4901L9.505 17.4951" stroke="#F9F9FB" stroke-width="1.5" stroke-linecap="round" stroke-linejoin="round"/>
</svg>
