<svg width="24" height="24" viewBox="0 0 24 24" fill="none" xmlns="http://www.w3.org/2000/svg">
<path d="M13.7679 10.2322C14.7442 11.2085 14.7442 12.7915 13.7679 13.7678C12.7916 14.7441 11.2087 14.7441 10.2324 13.7678C9.25604 12.7915 9.25604 11.2085 10.2324 10.2322C11.2087 9.25592 12.7916 9.25592 13.7679 10.2322" stroke="#F9F9FB" stroke-width="1.5" stroke-linecap="round" stroke-linejoin="round"/>
<path fill-rule="evenodd" clip-rule="evenodd" d="M14.849 4.1202L15.432 4.3142C15.966 4.4922 16.327 4.9922 16.327 5.5552V6.3922C16.327 7.1042 16.895 7.6852 17.607 7.7002L18.445 7.7182C18.93 7.7282 19.37 8.0072 19.587 8.4412L19.862 8.9912C20.114 9.4952 20.015 10.1032 19.617 10.5012L19.025 11.0932C18.522 11.5962 18.513 12.4092 19.005 12.9232L19.585 13.5292C19.921 13.8802 20.035 14.3872 19.881 14.8482L19.687 15.4312C19.509 15.9652 19.009 16.3262 18.446 16.3262H17.609C16.897 16.3262 16.316 16.8942 16.301 17.6062L16.283 18.4442C16.273 18.9292 15.994 19.3692 15.56 19.5862L15.01 19.8612C14.506 20.1132 13.898 20.0142 13.5 19.6162L12.908 19.0242C12.405 18.5212 11.592 18.5122 11.078 19.0042L10.472 19.5842C10.121 19.9202 9.61403 20.0342 9.15303 19.8802L8.57003 19.6862C8.03603 19.5082 7.67503 19.0082 7.67503 18.4452V17.6082C7.67503 16.8962 7.10703 16.3152 6.39503 16.3002L5.55703 16.2822C5.07203 16.2722 4.63203 15.9932 4.41503 15.5592L4.14003 15.0092C3.88803 14.5052 3.98703 13.8972 4.38503 13.4992L4.97703 12.9072C5.48003 12.4042 5.48903 11.5912 4.99703 11.0772L4.41703 10.4712C4.08003 10.1192 3.96603 9.6112 4.12003 9.1512L4.31403 8.5682C4.49203 8.0342 4.99203 7.6732 5.55503 7.6732H6.39203C7.10403 7.6732 7.68503 7.1052 7.70003 6.3932L7.71803 5.5552C7.73003 5.0702 8.00803 4.6302 8.44203 4.4132L8.99203 4.1382C9.49603 3.8862 10.104 3.9852 10.502 4.3832L11.094 4.9752C11.597 5.4782 12.41 5.4872 12.924 4.9952L13.53 4.4152C13.881 4.0802 14.389 3.9662 14.849 4.1202V4.1202Z" stroke="#F9F9FB" stroke-width="1.5" stroke-linecap="round" stroke-linejoin="round"/>
</svg>
